# Blender v2.93.4 OBJ File: 'Obstacle.blend'
# www.blender.org
mtllib Obstacle.mtl
o Circle
v -0.003292 0.000000 -1.463670
v -0.713417 0.000000 -1.058050
v -1.122120 0.000000 -0.206900
v -1.249820 0.000000 0.592833
v -0.859028 0.000000 1.189860
v -0.007186 0.000000 1.278970
v 0.795240 0.000000 0.855506
v 1.176430 0.000000 0.339750
v 1.082310 0.000000 -0.350141
v 0.689413 0.000000 -1.129020
v 0.001711 -0.678368 -1.875193
v -0.907404 -0.678368 -1.355916
v -1.430631 -0.678368 -0.266255
v -1.594120 -0.678368 0.757578
v -1.093818 -0.678368 1.521902
v -0.003274 -0.678368 1.635990
v 1.024007 -0.678368 1.093857
v 1.512010 -0.678368 0.433577
v 1.391513 -0.678368 -0.449634
v 0.888526 -0.678368 -1.446766
v -0.223215 0.732286 0.296300
v -0.012152 0.434358 0.825850
v -0.561033 0.434358 0.768428
v -0.730554 0.434358 -0.131568
v -0.467209 0.434358 -0.680004
v 0.436699 0.434358 -0.725730
v 0.689858 0.434358 -0.223864
v 0.504888 0.434358 0.552989
v -0.812839 0.434358 0.383737
v -0.009643 0.434358 -0.941361
v 0.750505 0.434358 0.220664
vt 0.767537 0.402639
vt 0.661721 0.237384
vt 0.767099 0.060049
vt 0.957351 0.322028
vt 0.337049 0.303968
vt 0.205189 0.474549
vt 0.000098 0.439338
vt 0.207998 0.137744
vt 0.334349 0.778977
vt 0.534470 0.790726
vt 0.566059 0.999902
vt 0.223759 0.959066
vt 0.757711 0.607420
vt 0.957351 0.673009
vt 0.498789 0.211342
vt 0.499296 0.000098
vt 0.198299 0.663415
vt 0.009855 0.752909
vt 0.687365 0.738045
vt 0.822581 0.891243
vt 0.588867 0.362384
vt 0.645053 0.455478
vt 0.528496 0.466933
vt 0.337904 0.496012
vt 0.413124 0.404373
vt 0.516765 0.664513
vt 0.406941 0.661794
vt 0.637810 0.567465
vt 0.498229 0.349466
vt 0.329697 0.600076
vt 0.600518 0.638691
vn 0.1565 0.5820 0.7980
vn -0.4034 0.6260 0.6673
vn -0.4526 0.5135 0.7290
vn 0.1562 0.4607 0.8737
vn -0.7995 0.5462 -0.2499
vn -0.6009 0.5752 -0.5549
vn -0.6402 0.4549 -0.6191
vn -0.8681 0.4182 -0.2675
vn 0.5663 0.5952 -0.5700
vn 0.7914 0.5595 -0.2460
vn 0.8612 0.4318 -0.2681
vn 0.6045 0.4765 -0.6384
vn 0.5387 0.5625 0.6272
vn 0.5883 0.4374 0.6802
vn -0.7851 0.5980 0.1613
vn -0.8525 0.4819 0.2026
vn -0.0294 0.6287 -0.7770
vn -0.0244 0.5184 -0.8548
vn 0.7928 0.5749 0.2022
vn 0.8613 0.4568 0.2223
vn -0.2949 0.8175 0.4946
vn 0.1318 0.7946 0.5926
vn -0.0757 0.9904 0.1155
vn -0.4117 0.8304 -0.3754
vn -0.5777 0.7937 -0.1902
vn 0.5143 0.8421 -0.1621
vn 0.3729 0.8554 -0.3593
vn 0.3888 0.8092 0.4404
vn -0.5843 0.8053 0.1007
vn -0.0201 0.8656 -0.5002
vn 0.5397 0.8320 0.1285
usemtl Roc
s 1
f 6/1/1 5/2/2 15/3/3 16/4/4
f 3/5/5 2/6/6 12/7/7 13/8/8
f 10/9/9 9/10/10 19/11/11 20/12/12
f 7/13/13 6/1/1 16/4/4 17/14/14
f 4/15/15 3/5/5 13/8/8 14/16/16
f 1/17/17 10/9/9 20/12/12 11/18/18
f 8/19/19 7/13/13 17/14/14 18/20/20
f 5/2/2 4/15/15 14/16/16 15/3/3
f 2/6/6 1/17/17 11/18/18 12/7/7
f 9/10/10 8/19/19 18/20/20 19/11/11
f 23/21/21 22/22/22 21/23/23
f 25/24/24 24/25/25 21/23/23
f 27/26/26 26/27/27 21/23/23
f 22/22/22 28/28/28 21/23/23
f 24/25/25 29/29/29 21/23/23
f 26/27/27 30/30/30 21/23/23
f 28/28/28 31/31/31 21/23/23
f 29/29/29 23/21/21 21/23/23
f 30/30/30 25/24/24 21/23/23
f 31/31/31 27/26/26 21/23/23
f 8/19/19 9/10/10 27/26/26 31/31/31
f 1/17/17 2/6/6 25/24/24 30/30/30
f 4/15/15 5/2/2 23/21/21 29/29/29
f 7/13/13 8/19/19 31/31/31 28/28/28
f 10/9/9 1/17/17 30/30/30 26/27/27
f 3/5/5 4/15/15 29/29/29 24/25/25
f 6/1/1 7/13/13 28/28/28 22/22/22
f 9/10/10 10/9/9 26/27/27 27/26/26
f 2/6/6 3/5/5 24/25/25 25/24/24
f 5/2/2 6/1/1 22/22/22 23/21/21
