# Blender v2.93.4 OBJ File: 'testImport.blend'
# www.blender.org
mtllib testImport.mtl
o Cube
v 1.000000 1.000000 -1.000000
v 1.000000 -1.000000 -1.000000
v 1.000000 1.000000 1.000000
v 1.000000 -1.000000 1.000000
v -1.000000 1.000000 -1.000000
v -1.000000 -1.000000 -1.000000
v -1.000000 1.000000 1.000000
v -1.000000 -1.000000 1.000000
v -1.000000 -1.000000 0.000000
v 1.000000 1.000000 0.000000
v -1.000000 1.000000 0.000000
v 1.000000 -1.000000 0.000000
v -1.000000 3.102665 0.000000
v -1.000000 3.102665 -1.000000
v 1.000000 3.102665 -1.000000
v 1.000000 3.102665 0.000000
v 1.000000 2.051333 -1.000000
v 1.000000 2.051333 0.000000
v -1.000000 2.051333 0.000000
v -1.000000 2.051333 -1.000000
v 1.000000 2.051333 -1.000000
v 1.000000 2.051333 0.000000
v -1.000000 2.051333 0.000000
v -1.000000 2.051333 -1.000000
v 1.000000 3.102665 0.000000
v 1.000000 2.051333 0.000000
v -1.000000 3.102665 2.230857
v 1.000000 3.102665 2.230857
v -1.000000 2.051333 2.230857
v 1.000000 2.051333 2.230857
vt 0.533349 0.721209
vt 0.533349 0.957568
vt 0.415170 0.957568
vt 0.415170 0.721209
vt 0.763641 0.484851
vt 0.763641 0.721209
vt 0.527283 0.721209
vt 0.527283 0.484851
vt 0.500000 0.000000
vt 0.500000 0.236359
vt 0.381821 0.236359
vt 0.381821 0.000000
vt 0.290924 0.603030
vt 0.527282 0.603030
vt 0.527282 0.721209
vt 0.290924 0.721209
vt 0.263641 0.000000
vt 0.263641 0.236359
vt 0.145462 0.236359
vt 0.145462 0.000000
vt 0.236359 0.484850
vt 0.236359 0.721209
vt 0.000000 0.721209
vt 0.000000 0.484850
vt 0.381821 0.000000
vt 0.381821 0.236359
vt 0.290924 0.484851
vt 0.527282 0.484851
vt 0.618179 0.000000
vt 0.618179 0.236359
vt 0.263641 0.360605
vt 0.381821 0.360605
vt 0.381821 0.484850
vt 0.263641 0.484850
vt 0.763641 0.000000
vt 1.000000 0.000000
vt 1.000000 0.118179
vt 0.763641 0.118179
vt 0.381821 0.360605
vt 0.500000 0.360605
vt 0.500000 0.484850
vt 0.381821 0.484850
vt 0.000000 0.845455
vt 0.236359 0.845455
vt 0.236359 0.969701
vt 0.000000 0.969701
vt 0.763641 0.360605
vt 0.763641 0.484850
vt 0.415170 0.721209
vt 0.415170 0.957568
vt 0.290924 0.957568
vt 0.290924 0.721209
vt 0.236359 0.484850
vt 0.236359 0.484850
vt 0.236359 0.484850
vt 0.236359 0.484850
vt 0.236359 0.484850
vt 0.236359 0.484850
vt 0.236359 0.484850
vt 0.236359 0.484850
vt 0.236359 0.484850
vt 0.236359 0.484850
vt 0.236359 0.484850
vt 0.887887 0.645462
vt 0.887887 0.881821
vt 0.763641 0.881821
vt 0.763641 0.645462
vt 0.000000 0.484850
vt 0.000000 0.360605
vt 1.000000 0.381821
vt 0.763641 0.381821
vt 0.763641 0.381821
vt 1.000000 0.381821
vt 1.000000 0.645462
vt 0.763641 0.645462
vn 0.0000 1.0000 0.0000
vn 0.0000 0.0000 1.0000
vn -1.0000 0.0000 0.0000
vn 0.0000 -1.0000 0.0000
vn 1.0000 0.0000 0.0000
vn 0.0000 0.0000 -1.0000
usemtl Material
s off
f 10/1/1 11/2/1 7/3/1 3/4/1
f 4/5/2 3/6/2 7/7/2 8/8/2
f 9/9/3 11/10/3 5/11/3 6/12/3
f 9/13/4 12/14/4 4/15/4 8/16/4
f 12/17/5 10/18/5 3/19/5 4/20/5
f 6/21/6 5/22/6 1/23/6 2/24/6
f 2/25/5 1/26/5 10/18/5 12/17/5
f 6/27/4 2/28/4 12/14/4 9/13/4
f 8/29/3 7/30/3 11/10/3 9/9/3
f 18/31/5 17/32/5 15/33/5 16/34/5
f 15/35/1 14/36/1 13/37/1 16/38/1
f 20/39/3 19/40/3 13/41/3 14/42/3
f 17/43/6 20/44/6 14/45/6 15/46/6
f 13/41/3 19/40/3 29/47/3 27/48/3
f 11/49/2 10/50/2 18/51/2 19/52/2
f 1/23/6 5/22/6 20/44/6 17/43/6
f 5/11/3 11/10/3 19/40/3 20/39/3
f 10/18/5 1/26/5 17/32/5 18/31/5
f 18/53/2 17/54/2 21/55/2 22/56/2
f 17/54/2 20/57/2 24/58/2 21/55/2
f 20/57/2 19/59/2 23/60/2 24/58/2
f 19/59/2 18/53/2 22/56/2 23/60/2
f 18/53/2 16/61/2 25/62/2 26/63/2
f 29/64/2 30/65/2 28/66/2 27/67/2
f 18/31/5 16/34/5 28/68/5 30/69/5
f 16/38/1 13/37/1 27/70/1 28/71/1
f 19/72/4 18/73/4 30/74/4 29/75/4
